<svg width="43" height="41" viewBox="0 0 43 41" fill="none" xmlns="http://www.w3.org/2000/svg">
<path d="M43 19.6514V35.7288C43.0031 36.1038 42.9124 36.4736 42.7362 36.8039C42.56 37.1342 42.3041 37.4144 41.992 37.6186C41.6529 37.8364 41.2592 37.9522 40.857 37.9525H0V19.6514H43Z" fill="#858585"/>
<path d="M4.32116 34.6414H4.18018V19.5088H38.263V31.7996C38.2929 32.5511 38.0963 33.2942 37.699 33.9309C37.2408 34.5561 36.0918 34.6414 35.7535 34.6414H4.32116ZM4.45509 34.3572H35.7464C36.3769 34.3992 36.9981 34.1871 37.4735 33.7675C37.8385 33.1793 38.0157 32.4924 37.981 31.7996V19.793H4.45509V34.3572Z" fill="#1D1D1B"/>
<path d="M41.9921 37.6182V39.1669H0.592285V37.9521H40.8431C41.25 37.9545 41.649 37.8386 41.9921 37.6182Z" fill="#1D1D1B"/>
<path d="M34.2025 31.7998H6.47803V37.9594L7.33803 40.0339L34.2025 39.8776V37.9594V31.7998Z" fill="#545454"/>
<path d="M43 18.5142V19.6509H0V14.6777H42.8308C42.9781 15.9508 43.0347 17.2329 43 18.5142Z" fill="#3D3D39"/>
<path d="M42.8306 14.678H40.2224L38.869 13.0298H36.7542L36.0493 12.3193H40.3634C40.8826 12.3771 41.3757 12.579 41.7877 12.9026C42.1997 13.2263 42.5144 13.6589 42.6967 14.1523C42.763 14.3212 42.808 14.4978 42.8306 14.678Z" fill="#575755"/>
<path d="M40.2225 34.4994C40.0206 34.4938 39.8217 34.5489 39.6511 34.6578C39.4805 34.7668 39.346 34.9245 39.2648 35.1109C39.1836 35.2972 39.1595 35.5038 39.1954 35.7041C39.2313 35.9043 39.3257 36.0893 39.4665 36.2352C39.6072 36.3811 39.788 36.4814 39.9856 36.5233C40.1833 36.5651 40.3888 36.5466 40.5759 36.4701C40.7631 36.3935 40.9233 36.2625 41.0361 36.0937C41.149 35.9249 41.2093 35.726 41.2094 35.5225C41.2113 35.2554 41.1088 34.9984 40.9241 34.8069C40.7394 34.6155 40.4874 34.505 40.2225 34.4994Z" fill="url(#paint0_radial_316_1298)"/>
<path d="M20.4635 23.8851C20.2212 23.8794 19.9827 23.9467 19.7785 24.0783C19.5743 24.2098 19.4136 24.3998 19.3169 24.6238C19.2203 24.8478 19.1921 25.0958 19.2359 25.3361C19.2797 25.5763 19.3936 25.798 19.563 25.9727C19.7324 26.1474 19.9496 26.2674 20.1869 26.3171C20.4242 26.3669 20.6708 26.3443 20.8953 26.2522C21.1198 26.16 21.3119 26.0026 21.4472 25.7999C21.5825 25.5972 21.6548 25.3585 21.6548 25.1142C21.6567 24.9546 21.6274 24.7963 21.5685 24.6482C21.5096 24.5 21.4224 24.3651 21.3118 24.2509C21.2011 24.1368 21.0693 24.0458 20.9238 23.983C20.7782 23.9202 20.6218 23.8869 20.4635 23.8851ZM20.4635 26.0946C20.2683 26.1002 20.0759 26.047 19.911 25.9417C19.746 25.8363 19.616 25.6837 19.5377 25.5034C19.4594 25.3231 19.4364 25.1234 19.4715 24.9298C19.5066 24.7362 19.5984 24.5576 19.7349 24.4169C19.8715 24.2762 20.0466 24.1799 20.2379 24.1402C20.4292 24.1005 20.6278 24.1194 20.8084 24.1943C20.989 24.2693 21.1432 24.3969 21.2513 24.5608C21.3594 24.7247 21.4165 24.9174 21.4152 25.1142C21.4171 25.3711 21.3181 25.6183 21.1398 25.802C20.9615 25.9857 20.7184 26.0908 20.4635 26.0946Z" fill="#30302D"/>
<path d="M40.2225 34.4994C40.0206 34.4938 39.8217 34.5489 39.6511 34.6578C39.4805 34.7668 39.346 34.9245 39.2648 35.1109C39.1836 35.2972 39.1595 35.5038 39.1954 35.7041C39.2313 35.9043 39.3257 36.0893 39.4665 36.2352C39.6072 36.3811 39.788 36.4814 39.9856 36.5233C40.1833 36.5651 40.3888 36.5466 40.5759 36.4701C40.7631 36.3935 40.9233 36.2625 41.0361 36.0937C41.149 35.9249 41.2093 35.726 41.2094 35.5225C41.2113 35.2554 41.1088 34.9984 40.9241 34.8069C40.7394 34.6155 40.4874 34.505 40.2225 34.4994ZM40.2225 36.3395C40.0613 36.3437 39.9026 36.2994 39.7665 36.2123C39.6304 36.1251 39.5232 35.999 39.4586 35.8502C39.394 35.7013 39.3749 35.5364 39.4038 35.3765C39.4326 35.2167 39.5081 35.0691 39.6206 34.9527C39.7331 34.8363 39.8774 34.7564 40.0352 34.7231C40.193 34.6898 40.3571 34.7047 40.5065 34.7658C40.6558 34.827 40.7837 34.9316 40.8738 35.0664C40.9638 35.2012 41.0119 35.36 41.012 35.5225C41.0121 35.7355 40.9296 35.9402 40.7821 36.0928C40.6346 36.2454 40.4338 36.3339 40.2225 36.3395Z" fill="#1D1D1B"/>
<path d="M34.7808 39.0605H5.75928V41.0001H34.7808V39.0605Z" fill="#1D1D1B"/>
<path d="M30.8755 32.0557H32.8281L34.7807 39.0607H32.8281L30.8755 32.0557Z" fill="#363636"/>
<path d="M9.65747 32.0557H7.7119L5.75928 39.0607H7.7119L9.65747 32.0557Z" fill="#363636"/>
<path d="M34.1954 30.6484H6.47803V32.0551H34.1954V30.6484Z" fill="#696969"/>
<path d="M24.2138 29.8957H16.7206C16.4527 29.8957 16.2412 29.7323 16.2412 29.5405V28.7732C16.2412 28.5814 16.4527 28.418 16.7206 28.418H24.2138C24.4747 28.418 24.6861 28.5814 24.6861 28.7732V29.5405C24.6861 29.7394 24.4747 29.8957 24.2138 29.8957ZM16.7206 28.6169C16.6007 28.6169 16.5091 28.6879 16.5091 28.7732V29.5405C16.5091 29.6257 16.6007 29.6968 16.7206 29.6968H24.2138C24.3266 29.6968 24.4253 29.6257 24.4253 29.5405V28.7732C24.4253 28.6879 24.3266 28.6169 24.2138 28.6169H16.7206Z" fill="#30302D"/>
<path d="M38.122 14.6846H0V18.5565H38.122V14.6846Z" fill="#6E6E6D"/>
<path d="M40.2227 14.6777V17.4343C40.2248 17.721 40.1166 17.9974 39.9207 18.2054C39.7249 18.4134 39.4566 18.5368 39.1724 18.5497H38.1221V14.6777H40.2227Z" fill="#777777"/>
<path d="M40.2224 14.6846H38.1218L36.7754 13.0293H38.869L40.2224 14.6846Z" fill="#828282"/>
<path d="M38.122 14.685H0L2.36852 12.2979H36.0354L36.7756 13.0296L38.122 14.685Z" fill="#969694"/>
<path d="M32.3837 37.5264H8.1416V38.9188H32.3837V37.5264Z" fill="#DADADA"/>
<path d="M10.0942 32.0557H30.5721L32.3837 37.5261H8.1416L10.0942 32.0557Z" fill="white"/>
<path d="M27.8938 14.6846H12.7451V15.3666H27.8938V14.6846Z" fill="#0E0E0E"/>
<path style="mix-blend-mode:multiply" opacity="0.8" d="M34.1954 32.0557H6.47803V36.2686H34.1954V32.0557Z" fill="url(#paint1_linear_316_1298)"/>
<path d="M32.8282 14.003H7.9375L9.05832 12.3477H31.8554L32.8282 14.003Z" fill="#1D1D1B"/>
<path d="M31.7495 0H9.19922V14.0029H31.7495V0Z" fill="#E8E8E8"/>
<path d="M14.5709 13.6621H11.8569V13.996H14.5709V13.6621Z" fill="#9D9D9C"/>
<path d="M29.2539 13.6621H26.3638V13.996H29.2539V13.6621Z" fill="#9D9D9C"/>
<path d="M40.3074 35.309C40.3074 35.309 40.3074 35.309 40.3074 35.3517C40.3708 35.4004 40.4135 35.4715 40.4273 35.5506C40.4329 35.5813 40.4318 35.613 40.4239 35.6432C40.4161 35.6735 40.4017 35.7016 40.3819 35.7257C40.362 35.7497 40.3372 35.769 40.3091 35.7823C40.281 35.7956 40.2503 35.8025 40.2193 35.8025C40.1883 35.8025 40.1576 35.7956 40.1295 35.7823C40.1014 35.769 40.0766 35.7497 40.0568 35.7257C40.0369 35.7016 40.0226 35.6735 40.0147 35.6432C40.0069 35.613 40.0057 35.5813 40.0114 35.5506C40.0114 35.4724 40.103 35.3872 40.1241 35.3659C40.1453 35.3446 40.1241 35.3161 40.1241 35.309C40.1241 35.3019 39.962 35.444 39.962 35.5506C39.9558 35.5882 39.9578 35.6268 39.9679 35.6636C39.978 35.7004 39.9959 35.7345 40.0204 35.7636C40.0448 35.7927 40.0753 35.8161 40.1097 35.8322C40.144 35.8482 40.1814 35.8565 40.2193 35.8565C40.2572 35.8565 40.2946 35.8482 40.329 35.8322C40.3633 35.8161 40.3938 35.7927 40.4183 35.7636C40.4428 35.7345 40.4607 35.7004 40.4707 35.6636C40.4808 35.6268 40.4828 35.5882 40.4766 35.5506C40.4766 35.4227 40.3638 35.2735 40.3074 35.309Z" fill="white"/>
<defs>
<radialGradient id="paint0_radial_316_1298" cx="0" cy="0" r="1" gradientUnits="userSpaceOnUse" gradientTransform="translate(40.2225 35.5225) scale(1.00098 1.00884)">
<stop stop-color="#575757"/>
<stop offset="0.35" stop-color="#595959"/>
<stop offset="0.48" stop-color="#606060"/>
<stop offset="0.57" stop-color="#6B6B6B"/>
<stop offset="0.64" stop-color="#7C7C7C"/>
<stop offset="0.71" stop-color="#929292"/>
<stop offset="0.76" stop-color="#AEAEAE"/>
<stop offset="0.81" stop-color="#CDCDCD"/>
<stop offset="0.84" stop-color="#E6E6E6"/>
</radialGradient>
<linearGradient id="paint1_linear_316_1298" x1="20.3367" y1="36.2686" x2="20.3367" y2="32.0557" gradientUnits="userSpaceOnUse">
<stop stop-color="white"/>
<stop offset="0.23" stop-color="#D0D0D0"/>
<stop offset="0.74" stop-color="#5B5B59"/>
<stop offset="1" stop-color="#1D1D1B"/>
</linearGradient>
</defs>
</svg>
